<svg width="1119" height="500" viewBox="0 0 1119 500" fill="none" xmlns="http://www.w3.org/2000/svg">
<rect width="1118.38" height="499.188" rx="26.25" fill="white"/>
<path d="M100.379 70.2738C101.85 68.8032 100.808 66.2886 98.7282 66.2886H68.9707C67.6814 66.2886 66.6362 67.3338 66.6362 68.6231V98.3809C66.6362 100.46 69.1508 101.502 70.6215 100.031L100.379 70.2738Z" fill="#FFD400"/>
<path d="M100.379 179.028C101.85 180.499 100.808 183.013 98.7282 183.013H68.9707C67.6814 183.013 66.6362 181.968 66.6362 180.679V150.921C66.6362 148.842 69.1508 147.8 70.6215 149.27L100.379 179.028Z" fill="#FFD400"/>
<path d="M149.618 70.2738C148.148 68.8032 149.189 66.2886 151.269 66.2886H181.027C182.316 66.2886 183.362 67.3338 183.362 68.6231V98.3815C183.362 100.461 180.847 101.503 179.376 100.032L149.618 70.2738Z" fill="#FFD400"/>
<path d="M149.618 179.028C148.148 180.499 149.189 183.013 151.269 183.013H181.027C182.316 183.013 183.361 181.968 183.361 180.679V150.921C183.361 148.842 180.846 147.8 179.376 149.27L149.618 179.028Z" fill="#FFD400"/>
<path d="M145.426 101.307C147.038 101.307 148.344 102.613 148.344 104.225V145.079C148.344 146.69 147.038 147.997 145.426 147.997H104.572C102.96 147.997 101.654 146.69 101.654 145.079V104.225C101.654 102.613 102.96 101.307 104.572 101.307H145.426Z" fill="#2E5073"/>
<path d="M496.098 170.31H332.683L379.373 123.62H449.408L496.098 170.31Z" fill="#FFD400"/>
<path d="M430.897 88.6022L414.39 72.0947L397.883 88.6022L414.39 105.11L430.897 88.6022Z" fill="#2E5073"/>
<path d="M758.564 179.029C760.035 180.499 758.993 183.014 756.913 183.014H651.46C649.38 183.014 648.339 180.499 649.81 179.029L674.322 154.517C674.759 154.079 675.354 153.833 675.973 153.833H732.401C733.02 153.833 733.614 154.079 734.052 154.517L758.564 179.029Z" fill="#FFD400"/>
<path d="M760.023 70.2738C761.494 68.8032 760.452 66.2886 758.373 66.2886H650.001C647.921 66.2886 646.88 68.8032 648.351 70.2738L672.863 94.786C673.301 95.2239 673.894 95.4698 674.514 95.4698H733.86C734.48 95.4698 735.073 95.2239 735.511 94.786L760.023 70.2738Z" fill="#FFD400"/>
<path d="M717.188 126.302C718.099 125.391 718.099 123.913 717.188 123.001L705.838 111.651C704.926 110.739 703.448 110.739 702.536 111.651L691.187 123.001C690.275 123.913 690.275 125.391 691.187 126.302L702.536 137.653C703.448 138.564 704.926 138.564 705.838 137.653L717.188 126.302Z" fill="#2E5073"/>
<rect x="943.094" y="72.27" width="46.69" height="46.69" rx="2.3345" fill="#FFD400"/>
<rect x="1000.29" y="74.6045" width="42.021" height="42.021" rx="21.0105" fill="#2E5073"/>
<rect x="997.955" y="128.298" width="46.69" height="46.69" rx="2.3345" fill="#FFD400"/>
<path d="M969.058 131.915C968.165 130.328 965.881 130.328 964.988 131.915L942.717 171.509C941.841 173.065 942.966 174.988 944.752 174.988H989.294C991.08 174.988 992.205 173.065 991.329 171.509L969.058 131.915Z" fill="#2E5073"/>
<path d="M656.998 378.335C655.528 376.864 656.569 374.35 658.649 374.35H699.316C701.894 374.35 703.985 376.44 703.985 379.019V419.685C703.985 421.765 701.47 422.807 700 421.336L656.998 378.335Z" fill="#2E5073"/>
<path fill-rule="evenodd" clip-rule="evenodd" d="M754.956 328.088C754.956 325.51 752.866 323.419 750.287 323.419H658.649C656.569 323.419 655.528 325.934 656.998 327.405L687.372 357.778C688.685 359.091 690.467 359.829 692.324 359.829H716.27C717.559 359.829 718.605 360.874 718.605 362.164V386.109C718.605 387.967 719.342 389.748 720.656 391.062L750.971 421.377C752.442 422.848 754.956 421.806 754.956 419.727V328.088Z" fill="#FFD400"/>
<path d="M182.444 367.87C183.914 366.4 182.873 363.885 180.793 363.885H107.056C105.766 363.885 104.721 364.931 104.721 366.22V439.957C104.721 442.037 107.235 443.078 108.706 441.608L182.444 367.87Z" fill="#FFD400"/>
<path d="M67.5546 380.521C66.084 381.991 67.1256 384.506 69.2054 384.506H142.842C144.132 384.506 145.177 383.46 145.177 382.171V308.534C145.177 306.454 142.663 305.413 141.192 306.883L67.5546 380.521Z" fill="#FFD400"/>
<path d="M416.167 410.132C415.256 409.221 413.778 409.221 412.866 410.132L393.333 429.666C392.184 430.814 392.533 432.752 394.045 433.344C407.178 438.478 421.855 438.478 434.988 433.344C436.501 432.752 436.849 430.814 435.701 429.666L416.167 410.132Z" fill="#FFD400"/>
<path d="M377.789 374.359C378.701 373.448 378.701 371.969 377.789 371.058L358.256 351.524C357.108 350.376 355.169 350.724 354.578 352.237C349.444 365.37 349.444 380.047 354.578 393.18C355.169 394.693 357.108 395.041 358.256 393.893L377.789 374.359Z" fill="#FFD400"/>
<rect x="414.517" y="349.363" width="33.2666" height="33.2666" rx="2.3345" transform="rotate(45 414.517 349.363)" fill="#2E5073"/>
<path d="M416.167 336.452C415.256 337.363 413.778 337.363 412.866 336.452L393.333 316.918C392.184 315.77 392.533 313.831 394.045 313.24C407.178 308.106 421.855 308.106 434.988 313.24C436.501 313.831 436.849 315.77 435.701 316.918L416.167 336.452Z" fill="#FFD400"/>
<path d="M451.244 374.359C450.332 373.448 450.332 371.969 451.244 371.058L470.777 351.524C471.926 350.376 473.864 350.724 474.456 352.237C479.589 365.37 479.589 380.047 474.456 393.18C473.864 394.693 471.926 395.041 470.777 393.893L451.244 374.359Z" fill="#FFD400"/>
<path d="M1014.82 318.531C1016.9 318.531 1017.94 316.017 1016.47 314.546L995.431 293.504C994.519 292.592 993.041 292.592 992.129 293.504L971.088 314.546C969.617 316.017 970.658 318.531 972.738 318.531H1014.82Z" fill="#FFD400"/>
<path d="M937.921 395.432C937.921 397.513 935.407 398.554 933.936 397.084L912.894 376.042C911.983 375.13 911.983 373.652 912.894 372.74L933.936 351.698C935.407 350.228 937.921 351.269 937.921 353.349V395.432Z" fill="#FFD400"/>
<path d="M1049.64 353.349C1049.64 351.269 1052.15 350.227 1053.62 351.698L1074.67 372.74C1075.58 373.652 1075.58 375.13 1074.67 376.042L1053.62 397.084C1052.15 398.555 1049.64 397.513 1049.64 395.433V353.349Z" fill="#FFD400"/>
<path d="M972.738 430.249C970.658 430.249 969.617 432.764 971.087 434.235L992.129 455.277C993.041 456.188 994.519 456.188 995.43 455.277L1016.47 434.235C1017.94 432.764 1016.9 430.249 1014.82 430.249H972.738Z" fill="#FFD400"/>
<path d="M993.781 348.127C1008.28 348.127 1020.04 359.886 1020.04 374.391C1020.04 388.895 1008.28 400.654 993.781 400.654C979.276 400.654 967.518 388.895 967.518 374.391C967.518 359.886 979.276 348.127 993.781 348.127Z" fill="#2E5073"/>
</svg>
