<svg width="1119" height="535" viewBox="0 0 1119 535" fill="none" xmlns="http://www.w3.org/2000/svg">
<path d="M100.379 70.2738C101.85 68.8032 100.808 66.2886 98.7282 66.2886H68.9707C67.6814 66.2886 66.6362 67.3338 66.6362 68.6231V98.3809C66.6362 100.46 69.1508 101.502 70.6215 100.031L100.379 70.2738Z" fill="#FFD400"/>
<path d="M100.379 179.028C101.85 180.499 100.808 183.013 98.7282 183.013H68.9707C67.6814 183.013 66.6362 181.968 66.6362 180.679V150.921C66.6362 148.842 69.1508 147.8 70.6215 149.27L100.379 179.028Z" fill="#FFD400"/>
<path d="M149.618 70.2738C148.148 68.8032 149.189 66.2886 151.269 66.2886H181.027C182.316 66.2886 183.362 67.3338 183.362 68.6231V98.3815C183.362 100.461 180.847 101.503 179.376 100.032L149.618 70.2738Z" fill="#FFD400"/>
<path d="M149.618 179.028C148.148 180.499 149.189 183.013 151.269 183.013H181.027C182.316 183.013 183.361 181.968 183.361 180.679V150.921C183.361 148.842 180.846 147.8 179.376 149.27L149.618 179.028Z" fill="#FFD400"/>
<path d="M145.426 101.307C147.038 101.307 148.344 102.613 148.344 104.225V145.079C148.344 146.69 147.038 147.997 145.426 147.997H104.572C102.96 147.997 101.654 146.69 101.654 145.079V104.225C101.654 102.613 102.96 101.307 104.572 101.307H145.426Z" fill="white"/>
<path d="M496.098 170.31H332.683L379.373 123.62H449.408L496.098 170.31Z" fill="#FFD400"/>
<path d="M430.897 88.6022L414.39 72.0947L397.883 88.6022L414.39 105.11L430.897 88.6022Z" fill="white"/>
<path d="M758.564 179.029C760.035 180.499 758.993 183.014 756.913 183.014H651.46C649.38 183.014 648.339 180.499 649.81 179.029L674.322 154.517C674.759 154.079 675.354 153.833 675.973 153.833H732.401C733.02 153.833 733.614 154.079 734.052 154.517L758.564 179.029Z" fill="#FFD400"/>
<path d="M760.023 70.2738C761.494 68.8032 760.452 66.2886 758.373 66.2886H650.001C647.921 66.2886 646.88 68.8032 648.351 70.2738L672.863 94.786C673.301 95.2239 673.894 95.4698 674.514 95.4698H733.86C734.48 95.4698 735.073 95.2239 735.511 94.786L760.023 70.2738Z" fill="#FFD400"/>
<path d="M717.188 126.302C718.099 125.391 718.099 123.913 717.188 123.001L705.838 111.651C704.926 110.739 703.448 110.739 702.536 111.651L691.187 123.001C690.275 123.913 690.275 125.391 691.187 126.302L702.536 137.653C703.448 138.564 704.926 138.564 705.838 137.653L717.188 126.302Z" fill="white"/>
<rect x="943.094" y="72.27" width="46.69" height="46.69" rx="2.3345" fill="#FFD400"/>
<rect x="1000.29" y="74.6045" width="42.021" height="42.021" rx="21.0105" fill="white"/>
<rect x="997.955" y="128.298" width="46.69" height="46.69" rx="2.3345" fill="#FFD400"/>
<path d="M969.058 131.915C968.165 130.328 965.881 130.328 964.988 131.915L942.717 171.509C941.841 173.065 942.966 174.988 944.752 174.988H989.294C991.08 174.988 992.205 173.065 991.329 171.509L969.058 131.915Z" fill="white"/>
<path d="M656.998 413.335C655.528 411.864 656.569 409.35 658.649 409.35H699.316C701.894 409.35 703.985 411.44 703.985 414.019V454.685C703.985 456.765 701.47 457.807 700 456.336L656.998 413.335Z" fill="white"/>
<path fill-rule="evenodd" clip-rule="evenodd" d="M754.956 363.088C754.956 360.51 752.866 358.419 750.287 358.419H658.649C656.569 358.419 655.528 360.934 656.998 362.405L687.372 392.778C688.685 394.091 690.467 394.829 692.324 394.829H716.27C717.559 394.829 718.605 395.874 718.605 397.164V421.109C718.605 422.967 719.342 424.748 720.656 426.062L750.971 456.377C752.442 457.848 754.956 456.806 754.956 454.727V363.088Z" fill="#FFD400"/>
<path d="M182.444 402.87C183.914 401.4 182.873 398.885 180.793 398.885H107.056C105.766 398.885 104.721 399.931 104.721 401.22V474.957C104.721 477.037 107.235 478.078 108.706 476.608L182.444 402.87Z" fill="#FFD400"/>
<path d="M67.5546 415.521C66.084 416.991 67.1256 419.506 69.2054 419.506H142.842C144.132 419.506 145.177 418.46 145.177 417.171V343.534C145.177 341.454 142.663 340.413 141.192 341.883L67.5546 415.521Z" fill="#FFD400"/>
<path d="M416.167 445.132C415.256 444.221 413.778 444.221 412.866 445.132L393.333 464.666C392.184 465.814 392.533 467.752 394.045 468.344C407.178 473.478 421.855 473.478 434.988 468.344C436.501 467.752 436.849 465.814 435.701 464.666L416.167 445.132Z" fill="#FFD400"/>
<path d="M377.789 409.359C378.701 408.448 378.701 406.969 377.789 406.058L358.256 386.524C357.108 385.376 355.169 385.724 354.578 387.237C349.444 400.37 349.444 415.047 354.578 428.18C355.169 429.693 357.108 430.041 358.256 428.893L377.789 409.359Z" fill="#FFD400"/>
<rect x="414.517" y="384.363" width="33.2666" height="33.2666" rx="2.3345" transform="rotate(45 414.517 384.363)" fill="white"/>
<path d="M416.167 371.452C415.256 372.363 413.778 372.363 412.866 371.452L393.333 351.918C392.184 350.77 392.533 348.831 394.045 348.24C407.178 343.106 421.855 343.106 434.988 348.24C436.501 348.831 436.849 350.77 435.701 351.918L416.167 371.452Z" fill="#FFD400"/>
<path d="M451.244 409.359C450.332 408.448 450.332 406.969 451.244 406.058L470.777 386.524C471.926 385.376 473.864 385.724 474.456 387.237C479.589 400.37 479.589 415.047 474.456 428.18C473.864 429.693 471.926 430.041 470.777 428.893L451.244 409.359Z" fill="#FFD400"/>
<path d="M1014.82 353.531C1016.9 353.531 1017.94 351.017 1016.47 349.546L995.431 328.504C994.519 327.592 993.041 327.592 992.129 328.504L971.088 349.546C969.617 351.017 970.658 353.531 972.738 353.531H1014.82Z" fill="#FFD400"/>
<path d="M937.921 430.432C937.921 432.513 935.407 433.554 933.936 432.084L912.894 411.042C911.983 410.13 911.983 408.652 912.894 407.74L933.936 386.698C935.407 385.228 937.921 386.269 937.921 388.349V430.432Z" fill="#FFD400"/>
<path d="M1049.64 388.349C1049.64 386.269 1052.15 385.227 1053.62 386.698L1074.67 407.74C1075.58 408.652 1075.58 410.13 1074.67 411.042L1053.62 432.084C1052.15 433.555 1049.64 432.513 1049.64 430.433V388.349Z" fill="#FFD400"/>
<path d="M972.738 465.249C970.658 465.249 969.617 467.764 971.087 469.235L992.129 490.277C993.041 491.188 994.519 491.188 995.43 490.277L1016.47 469.235C1017.94 467.764 1016.9 465.249 1014.82 465.249H972.738Z" fill="#FFD400"/>
<path d="M993.781 383.127C1008.28 383.127 1020.04 394.886 1020.04 409.391C1020.04 423.895 1008.28 435.654 993.781 435.654C979.276 435.654 967.518 423.895 967.518 409.391C967.518 394.886 979.276 383.127 993.781 383.127Z" fill="white"/>
</svg>
